<svg xmlns="http://www.w3.org/2000/svg" version="1.1" xmlns:xlink="http://www.w3.org/1999/xlink" xmlns:svgjs="http://svgjs.dev/svgjs" width="1000" height="750" viewBox="0 0 1000 750"><rect width="1000" height="750" fill="#282634"></rect><g transform="matrix(0.834,0,0,0.834,82.49454545454546,115.4193570850203)"><svg viewBox="0 0 396 247" data-background-color="#282634" preserveAspectRatio="xMidYMid meet" height="623" width="1000" xmlns="http://www.w3.org/2000/svg" xmlns:xlink="http://www.w3.org/1999/xlink"><g id="tight-bounds" transform="matrix(1,0,0,1,0.2400000000000091,-0.09999999999999432)"><svg viewBox="0 0 395.52 247.2" height="247.2" width="395.52"><g><svg></svg></g><g><svg viewBox="0 0 395.52 247.2" height="247.2" width="395.52"><g transform="matrix(1,0,0,1,144.8699629213483,47.215199999999996)"><svg viewBox="0 0 105.78007415730336 152.7696" height="152.7696" width="105.78007415730336"><g><svg viewBox="0 0 105.78007415730336 152.7696" height="152.7696" width="105.78007415730336"><g><svg viewBox="0 0 105.78007415730336 152.7696" height="152.7696" width="105.78007415730336"><g><svg viewBox="0 0 105.78007415730336 152.7696" height="152.7696" width="105.78007415730336"><g id="textblocktransform"><svg viewBox="0 0 105.78007415730336 152.7696" height="152.7696" width="105.78007415730336" id="textblock"><g><svg viewBox="0 0 105.78007415730336 152.7696" height="152.7696" width="105.78007415730336"><g transform="matrix(1,0,0,1,0,0)"><svg width="105.78007415730336" viewBox="2.8499999046325684 -35.099998474121094 24.649999618530273 35.599998474121094" height="152.7696" data-palette-color="#ff4057"><path d="M23.7-14.25L17.95-14.25 17.95-17.7 27.5-17.7 27.5-0.7Q21.2 0.5 16.25 0.5L16.25 0.5Q8.7 0.5 5.78-3.85 2.85-8.2 2.85-17.28 2.85-26.35 5.78-30.73 8.7-35.1 16.15-35.1L16.15-35.1Q20.8-35.1 25.8-34.1L25.8-34.1 27.5-33.8 27.35-30.6Q21.15-31.65 16.6-31.65L16.6-31.65Q10.85-31.65 8.85-28.33 6.85-25 6.85-17.28 6.85-9.55 8.85-6.23 10.85-2.9 16.55-2.9L16.55-2.9Q20.05-2.9 23.7-3.6L23.7-3.6 23.7-14.25Z" opacity="1" transform="matrix(1,0,0,1,0,0)" fill="#ff4057" class="wordmark-text-0" data-fill-palette-color="primary" id="text-0"></path></svg></g></svg></g></svg></g></svg></g></svg></g></svg></g></svg></g><path d="M68.349 41.215L68.349 0 315.549 0 315.549 247.2 68.349 247.2 68.349 205.985 82.126 205.985 82.126 233.423 301.772 233.423 301.772 13.777 82.126 13.777 82.126 41.215Z" fill="#ff4057" stroke="transparent" data-fill-palette-color="primary"></path></svg></g><defs></defs></svg><rect width="395.52" height="247.2" fill="none" stroke="none" visibility="hidden"></rect></g></svg></g></svg>